# This file uses centimeters as units for non-parametric coordinates.

mtllib door.mtl
g default
v -0.000000 1.000000 1.000000
v 0.000000 -1.000000 1.000000
v 0.000000 1.000000 -1.000000
v 0.000000 -1.000000 -1.000000
v -0.000000 1.000000 -0.576522
v 0.000000 -1.000000 -0.576522
v -0.000000 1.000000 0.576522
v 0.000000 -1.000000 0.576522
v 0.000000 0.544788 -1.000000
v 0.000000 0.544788 -0.576522
v -0.000000 0.544788 0.576522
v -0.000000 0.544788 1.000000
v 0.054237 0.544788 -0.576522
v 0.054237 -1.000000 -0.576522
v 0.054237 -1.000000 -1.000000
v 0.054237 0.544788 -1.000000
v 0.054237 0.544788 1.000000
v 0.054237 -1.000000 1.000000
v 0.054237 -1.000000 0.576522
v 0.054237 0.544788 0.576522
v 0.054237 1.000000 -0.576522
v 0.054237 1.000000 -1.000000
v 0.054237 1.000000 0.576522
v 0.054237 1.000000 1.000000
vt 0.788261 0.772394
vt 0.788261 0.000000
vt 1.000000 0.000000
vt 1.000000 0.772394
vt 0.000000 0.772394
vt 0.000000 0.000000
vt 0.211739 0.000000
vt 0.211739 0.772394
vt 0.788261 1.000000
vt 1.000000 1.000000
vt 0.211739 1.000000
vt 0.000000 1.000000
vt 0.788261 0.772394
vt 0.788261 0.000000
vt 1.000000 0.000000
vt 1.000000 0.772394
vt 0.000000 0.772394
vt 0.000000 0.000000
vt 0.211739 0.000000
vt 0.211739 0.772394
vt 0.788261 1.000000
vt 1.000000 1.000000
vt 0.211739 1.000000
vt 0.000000 1.000000
vt 0.788261 0.772394
vt 0.788261 0.000000
vt 1.000000 0.000000
vt 1.000000 0.772394
vt 0.000000 0.772394
vt 0.000000 0.000000
vt 0.211739 0.000000
vt 0.211739 0.772394
vt 1.000000 1.000000
vt 0.788261 1.000000
vt 0.211739 1.000000
vt 0.000000 1.000000
vn 1.000000 0.000000 -0.000000
vn 1.000000 -0.000000 -0.000000
vn 1.000000 -0.000000 -0.000000
vn 1.000000 0.000000 -0.000000
vn 1.000000 -0.000000 -0.000000
vn 1.000000 -0.000000 -0.000000
vn 1.000000 -0.000000 -0.000000
vn 1.000000 0.000000 -0.000000
vn 1.000000 0.000000 -0.000000
vn 1.000000 0.000000 -0.000000
vn 1.000000 0.000000 0.000000
vn 1.000000 -0.000000 0.000000
vn -1.000000 -0.000000 0.000000
vn -1.000000 0.000000 0.000000
vn -1.000000 0.000000 0.000000
vn -1.000000 0.000000 0.000000
vn -1.000000 -0.000000 -0.000000
vn -1.000000 -0.000000 -0.000000
vn -1.000000 -0.000000 -0.000000
vn -1.000000 -0.000000 -0.000000
vn -1.000000 -0.000000 0.000000
vn -1.000000 -0.000000 0.000000
vn -1.000000 -0.000000 -0.000000
vn -1.000000 -0.000000 -0.000000
vn 0.000000 0.000000 1.000000
vn 0.000000 0.000000 1.000000
vn 0.000000 0.000000 1.000000
vn 0.000000 0.000000 1.000000
vn 0.000000 -1.000000 0.000000
vn 0.000000 -1.000000 0.000000
vn 0.000000 -1.000000 0.000000
vn 0.000000 -1.000000 0.000000
vn 0.000000 0.000000 -1.000000
vn 0.000000 0.000000 -1.000000
vn 0.000000 0.000000 -1.000000
vn 0.000000 0.000000 -1.000000
vn 0.000000 0.000000 1.000000
vn 0.000000 0.000000 1.000000
vn 0.000000 0.000000 1.000000
vn 0.000000 0.000000 1.000000
vn 0.000000 -1.000000 0.000000
vn 0.000000 -1.000000 0.000000
vn 0.000000 -1.000000 0.000000
vn 0.000000 -1.000000 0.000000
vn 0.000000 0.000000 -1.000000
vn 0.000000 0.000000 -1.000000
vn 0.000000 0.000000 -1.000000
vn 0.000000 0.000000 -1.000000
vn 0.000000 0.000000 -1.000000
vn 0.000000 0.000000 -1.000000
vn -0.000000 1.000000 0.000000
vn -0.000000 1.000000 0.000000
vn -0.000000 1.000000 0.000000
vn -0.000000 1.000000 0.000000
vn 0.000000 -1.000000 0.000000
vn 0.000000 -1.000000 0.000000
vn 0.000000 -1.000000 0.000000
vn 0.000000 -1.000000 0.000000
vn -0.000000 1.000000 0.000000
vn -0.000000 1.000000 0.000000
vn 0.000000 0.000000 1.000000
vn 0.000000 0.000000 1.000000
vn -0.000000 1.000000 0.000000
vn -0.000000 1.000000 0.000000
s 1
g pPlane1
usemtl stadium_tile
f 13/25/1 14/26/2 15/27/3 16/28/4
f 17/29/5 18/30/6 19/31/7 20/32/8
f 21/34/9 13/25/1 16/28/4 22/33/10
f 23/35/11 20/32/8 13/25/1 21/34/9
f 24/36/12 17/29/5 20/32/8 23/35/11
s 3
f 10/13/13 9/16/14 4/15/15 6/14/16
f 12/17/17 11/20/18 8/19/19 2/18/20
f 5/21/21 3/22/22 9/16/14 10/13/13
f 7/23/23 5/21/21 10/13/13 11/20/18
f 1/24/24 7/23/23 11/20/18 12/17/17
s off
f 10/1/25 6/2/26 14/26/27 13/25/28
f 6/2/29 4/3/30 15/27/31 14/26/32
s 5
f 4/3/33 9/4/34 16/28/35 15/27/36
s 6
f 12/5/37 2/6/38 18/30/39 17/29/40
s off
f 2/6/41 8/7/42 19/31/43 18/30/44
f 8/7/45 11/8/46 20/32/47 19/31/48
s 5
f 9/4/34 3/10/49 22/33/50 16/28/35
s 7
f 3/10/51 5/9/52 21/34/53 22/33/54
s off
f 11/8/55 10/1/56 13/25/57 20/32/58
s 7
f 5/9/52 7/11/59 23/35/60 21/34/53
s 6
f 1/12/61 12/5/37 17/29/40 24/36/62
s 7
f 7/11/59 1/12/63 24/36/64 23/35/60
